<svg width="15" height="18" viewBox="0 0 15 18" fill="none" xmlns="http://www.w3.org/2000/svg">
<path d="M7.95761 1.39038C7.95761 1.39038 8.04719 1.39038 8.11684 1.64038C8.20611 1.94919 8.25299 2.26881 8.25615 2.59038C8.25615 3.40038 8.25615 4.20038 8.25615 5.04038V6.35037C8.2356 6.54805 8.25935 6.74784 8.32574 6.93505C8.39213 7.12227 8.49946 7.29215 8.63976 7.4322C8.78006 7.57226 8.94979 7.67893 9.13651 7.74438C9.32322 7.80982 9.52216 7.83237 9.71869 7.81037H10.9425C11.3006 7.81037 11.7185 7.81037 12.1364 7.81037C12.3559 7.81795 12.5734 7.85495 12.7832 7.92037C12.9722 7.99037 13.012 8.07038 12.9523 8.27038C12.8608 8.50345 12.7368 8.72229 12.5842 8.92037C12.027 9.71037 11.4101 10.4904 10.8131 11.2404L10.1167 12.1304L9.52965 12.8804C8.85309 13.7604 8.14669 14.6704 7.43032 15.5304C7.17963 15.8594 6.885 16.1522 6.55476 16.4004C6.48251 16.4559 6.39648 16.4905 6.30603 16.5004C6.24633 16.5004 6.1767 16.3704 6.1369 16.2504C6.05439 15.9708 6.00757 15.6818 5.99759 15.3904C5.99759 14.8404 5.99759 14.2804 5.99759 13.7504V12.7504C5.99759 12.3204 5.99759 11.9304 5.99759 11.5504C6.00397 11.3668 5.97379 11.1838 5.90887 11.0121C5.84395 10.8403 5.74558 10.6834 5.61951 10.5504C5.48201 10.4117 5.31711 10.3036 5.13545 10.233C4.95379 10.1624 4.75941 10.1308 4.56486 10.1404H2.66448C2.29665 10.1465 1.9294 10.1095 1.57006 10.0304C1.45745 10.0149 1.35462 9.95787 1.28154 9.87037C1.26537 9.76 1.28638 9.64736 1.34124 9.55037C1.55949 9.11535 1.83015 8.70896 2.14714 8.34038C3.62962 6.44038 5.13198 4.53038 6.61446 2.64038C6.88811 2.27301 7.20182 1.93759 7.54971 1.64038C7.63642 1.55087 7.74697 1.48838 7.8681 1.46038M7.8681 0.300375C7.49723 0.324884 7.14598 0.476687 6.87315 0.730376C6.45962 1.07756 6.08587 1.46998 5.75882 1.90037L1.28154 7.61038C0.891272 8.07211 0.557258 8.57903 0.286595 9.12037C0.17889 9.31828 0.119643 9.53913 0.113766 9.76463C0.107889 9.99013 0.155522 10.2138 0.25277 10.4171C0.350017 10.6204 0.49404 10.7975 0.672939 10.9337C0.851838 11.0699 1.06049 11.1613 1.28154 11.2004C1.72828 11.3051 2.18592 11.3555 2.64462 11.3504H4.63452C4.81361 11.3504 4.88325 11.4004 4.8733 11.6004C4.8733 12.1604 4.8733 12.7304 4.8733 13.4104C4.8733 14.0904 4.8733 14.8204 4.8733 15.5804C4.89088 15.9666 4.95434 16.3493 5.06234 16.7204C5.13933 17.0026 5.30482 17.2523 5.53425 17.4325C5.76368 17.6126 6.04478 17.7136 6.33584 17.7204C6.65328 17.7152 6.96183 17.6142 7.22136 17.4304C7.67396 17.1245 8.07672 16.7501 8.41531 16.3204C9.35056 15.1904 10.2261 14.0404 11.1215 12.8904C12.017 11.7404 12.8329 10.7504 13.6288 9.64038C13.852 9.33615 14.0266 8.99875 14.1462 8.64038C14.2159 8.46312 14.2478 8.27312 14.2397 8.08269C14.2316 7.89227 14.1838 7.70568 14.0994 7.53501C14.015 7.36435 13.8958 7.21343 13.7496 7.09204C13.6034 6.97065 13.4334 6.8815 13.2508 6.83037C12.9476 6.73344 12.6332 6.6763 12.3155 6.66038C11.8976 6.66038 11.4698 6.66038 11.042 6.66038H9.80827C9.48988 6.66038 9.49982 6.66037 9.48987 6.35037C9.48987 5.08037 9.48987 3.81038 9.48987 2.54038C9.47464 2.1171 9.4078 1.6973 9.29087 1.29038C9.2343 1.04703 9.11113 0.82442 8.93532 0.647711C8.7595 0.471002 8.53804 0.347232 8.29592 0.290377C8.20364 0.275603 8.10959 0.275603 8.01731 0.290377L7.8681 0.300375Z" fill="#A8A9AE"/>
</svg>
