<svg width="20" height="20" viewBox="0 0 20 20" fill="none" xmlns="http://www.w3.org/2000/svg">
<path d="M7.00694 1.62485C7.66025 1.62485 8.29889 1.81957 8.8421 2.18438C9.38532 2.54918 9.80869 3.0677 10.0587 3.67435C10.3087 4.281 10.3741 4.94854 10.2467 5.59255C10.1192 6.23657 9.80464 6.82814 9.34267 7.29245C8.88071 7.75676 8.2921 8.07296 7.65134 8.20106C7.01058 8.32916 6.34643 8.26342 5.74285 8.01213C5.13926 7.76085 4.62334 7.33532 4.26038 6.78935C3.89742 6.24338 3.7037 5.60149 3.7037 4.94485C3.7037 4.06434 4.05172 3.21988 4.6712 2.59726C5.29067 1.97464 6.13086 1.62485 7.00694 1.62485ZM7.00694 0.464855C6.12535 0.464855 5.26357 0.727603 4.53055 1.21987C3.79754 1.71214 3.22623 2.41182 2.88886 3.23043C2.5515 4.04904 2.46322 4.94982 2.63521 5.81886C2.8072 6.68789 3.23171 7.48615 3.85509 8.11269C4.47846 8.73923 5.27268 9.16591 6.13733 9.33877C7.00197 9.51163 7.89822 9.42292 8.71269 9.08384C9.52717 8.74475 10.2233 8.17054 10.7131 7.43381C11.2029 6.69708 11.4643 5.83091 11.4643 4.94485C11.4656 4.35616 11.3512 3.77301 11.1277 3.22887C10.9041 2.68474 10.5759 2.19034 10.1617 1.77407C9.74753 1.35781 9.25563 1.02786 8.71424 0.803188C8.17286 0.578514 7.59266 0.463536 7.00694 0.464855Z" fill="#A8A9AE"/>
<path d="M7.00698 11.785C9.99183 11.785 12.5886 13.295 12.5886 15.075C12.5886 16.855 10.0316 18.375 7.00698 18.375C3.98234 18.375 1.41534 16.865 1.41534 15.075C1.41534 13.285 3.97239 11.785 7.00698 11.785ZM7.00698 10.625C3.27593 10.625 0.26123 12.625 0.26123 15.075C0.26123 17.525 3.24608 19.535 7.00698 19.535C10.7679 19.535 13.7527 17.535 13.7527 15.075C13.7527 12.615 10.7679 10.625 7.00698 10.625Z" fill="#A8A9AE"/>
<path d="M13.4143 2.79492H13.7426C14.6187 2.79492 15.4589 3.14471 16.0784 3.76733C16.6978 4.38995 17.0459 5.2344 17.0459 6.11492C17.0459 6.99544 16.6978 7.8399 16.0784 8.46252C15.4589 9.08514 14.6187 9.43492 13.7426 9.43492H13.4143M14.9067 11.4453C17.1155 11.7853 18.7472 13.1053 18.7472 14.6553C18.7472 16.2053 17.1155 17.5253 14.9067 17.8753" stroke="#A8A9AE" stroke-width="1.16" stroke-miterlimit="10" stroke-linecap="round"/>
</svg>
