<svg width="17" height="17" viewBox="0 0 17 17" fill="none" xmlns="http://www.w3.org/2000/svg">
<path d="M5.19072 16.1695C4.79159 16.1679 4.40584 16.0245 4.10176 15.7647C3.79769 15.5048 3.59485 15.1452 3.52911 14.7495C3.5144 14.6066 3.5144 14.4625 3.52911 14.3195V11.2595C3.53867 11.215 3.53767 11.1689 3.52619 11.1249C3.51472 11.0808 3.49307 11.0401 3.46304 11.006C3.43301 10.972 3.39548 10.9455 3.35337 10.9287C3.31125 10.9119 3.26572 10.9054 3.22062 10.9095H3.09127C2.56444 10.9074 2.05382 10.7265 1.64208 10.3962C1.23034 10.0658 0.94169 9.6054 0.822876 9.08953V8.97953V6.57954C0.889099 6.25146 1.02227 5.94076 1.21408 5.66708C1.40589 5.3934 1.65215 5.16269 1.93721 4.98954C2.26114 4.79095 2.63231 4.68385 3.01172 4.67953H6.05632C6.24337 4.68119 6.42897 4.64727 6.60347 4.57954L12.7523 2.06954C12.9232 1.99946 13.0617 1.8674 13.1404 1.69953C13.2897 1.39424 13.5224 1.13804 13.8114 0.960933C14.1004 0.783827 14.4337 0.693147 14.7721 0.699534H15.0904C15.467 0.772927 15.8113 0.962736 16.0753 1.24243C16.3393 1.52212 16.5098 1.87771 16.5629 2.25953C16.5629 2.37953 16.5629 2.47954 16.5629 2.57954C16.5629 6.01954 16.5629 9.46954 16.5629 12.9095C16.5739 13.184 16.5222 13.4574 16.4118 13.7088C16.3015 13.9601 16.1353 14.1827 15.9261 14.3595C15.5954 14.6419 15.1761 14.7977 14.7422 14.7995C14.4242 14.7985 14.1121 14.7128 13.8377 14.5512C13.5634 14.3896 13.3364 14.1579 13.1801 13.8795C13.0983 13.733 12.968 13.6198 12.8119 13.5595L7.37956 11.3395C7.311 11.3059 7.23676 11.2855 7.1607 11.2795C6.99156 11.2795 6.99151 11.4395 6.99151 11.5995V14.3795C7.00358 14.6091 6.96952 14.8386 6.89131 15.0546C6.8131 15.2706 6.69233 15.4685 6.5363 15.6365C6.38028 15.8046 6.19219 15.9392 5.9832 16.0325C5.77422 16.1258 5.54871 16.1758 5.32007 16.1795L5.19072 16.1695ZM4.88223 10.9095C4.84385 10.9082 4.80564 10.9146 4.76976 10.9284C4.73388 10.9421 4.7011 10.9629 4.67332 10.9895C4.64126 11.0239 4.6174 11.0652 4.60361 11.1103C4.58982 11.1554 4.58638 11.203 4.59365 11.2495V14.3795C4.59365 14.5466 4.65974 14.7069 4.77729 14.825C4.89484 14.9432 5.05423 15.0095 5.22047 15.0095C5.38672 15.0095 5.54623 14.9432 5.66378 14.825C5.78133 14.7069 5.8473 14.5466 5.8473 14.3795V12.3795C5.8473 11.9995 5.8473 11.6295 5.8473 11.2495C5.85331 11.1529 5.82516 11.0573 5.76774 10.9795C5.70086 10.9239 5.6157 10.8953 5.52897 10.8995H4.88223V10.9095ZM14.6924 1.75953C14.5957 1.76212 14.5004 1.78385 14.4121 1.82345C14.3238 1.86305 14.2441 1.91976 14.1776 1.99034C14.111 2.06092 14.059 2.14398 14.0244 2.23478C13.9898 2.32558 13.9734 2.42235 13.9761 2.51954V12.9995C13.9674 13.1772 14.0263 13.3516 14.1409 13.4872C14.2555 13.6228 14.4171 13.7094 14.5929 13.7295C14.7706 13.7492 14.9494 13.7033 15.0959 13.6002C15.2423 13.4972 15.3465 13.3441 15.3889 13.1695C15.3988 13.0765 15.3988 12.9826 15.3889 12.8895V2.48954C15.3814 2.34992 15.333 2.21565 15.2498 2.10357C15.1666 1.99149 15.0522 1.9066 14.9212 1.85954C14.8511 1.81353 14.7737 1.77972 14.6924 1.75953ZM12.7025 3.25953C12.6329 3.26607 12.5653 3.28648 12.5036 3.31954L7.20041 5.47953C7.12092 5.50418 7.05209 5.55516 7.00512 5.62417C6.95814 5.69318 6.93577 5.77614 6.94172 5.85954V9.71954C6.93577 9.80294 6.95814 9.8859 7.00512 9.95491C7.05209 10.0239 7.12092 10.0749 7.20041 10.0995L12.5036 12.2595C12.5682 12.2942 12.6394 12.3146 12.7125 12.3195C12.7488 12.3199 12.7841 12.3068 12.8116 12.2829C12.8391 12.259 12.8569 12.2258 12.8617 12.1895C12.8683 12.1297 12.8683 12.0694 12.8617 12.0095V3.57954C12.8717 3.43954 12.8717 3.25953 12.7025 3.25953ZM5.48913 9.80954C5.53715 9.81795 5.58647 9.8148 5.63305 9.80035C5.67963 9.7859 5.72211 9.76056 5.75706 9.72641C5.79201 9.69225 5.8185 9.65027 5.83418 9.60388C5.84986 9.55749 5.85431 9.50803 5.8473 9.45954C5.8473 9.05954 5.8473 8.65954 5.8473 8.26954V7.26954C5.8473 6.85954 5.8473 6.43954 5.8473 6.02954C5.8541 5.98595 5.85057 5.94137 5.83697 5.89942C5.82338 5.85748 5.80012 5.81937 5.76908 5.78817C5.73804 5.75698 5.70017 5.73358 5.65844 5.71992C5.6167 5.70626 5.57233 5.70271 5.52897 5.70954H3.06151C2.7657 5.70227 2.47763 5.80564 2.25336 5.99964C2.02908 6.19365 1.88448 6.46445 1.84758 6.75953C1.78228 7.38448 1.78228 8.01459 1.84758 8.63954C1.85503 8.79817 1.89429 8.95366 1.96296 9.09669C2.03163 9.23972 2.12837 9.36736 2.24729 9.47193C2.3662 9.57651 2.50484 9.65588 2.65501 9.7053C2.80517 9.75472 2.96372 9.77317 3.12115 9.75953H5.49909L5.48913 9.80954Z" fill="black"/>
</svg>
