<svg width="19" height="20" viewBox="0 0 19 20" fill="none" xmlns="http://www.w3.org/2000/svg">
<path d="M5.59747 19.1636C5.12052 19.1697 4.65721 19.0035 4.29197 18.6951C3.92673 18.3868 3.68386 17.9568 3.60758 17.4836C3.5926 17.3106 3.5926 17.1366 3.60758 16.9636V13.3536C3.61846 13.2394 3.5865 13.1253 3.518 13.0336C3.44344 12.9697 3.34717 12.9375 3.24941 12.9436H3.09018C2.46548 12.9473 1.85837 12.736 1.36967 12.3449C0.880969 11.9538 0.540099 11.4063 0.403809 10.7936V10.6936V7.82357C0.472929 7.43926 0.622166 7.07397 0.841649 6.75169C1.06113 6.42941 1.34593 6.15742 1.67737 5.95357C2.05664 5.71565 2.49392 5.58761 2.94098 5.58357H6.53273C6.75494 5.58579 6.9752 5.54152 7.17947 5.45357L14.4525 2.45357C14.5539 2.41411 14.6464 2.35493 14.725 2.27942C14.8035 2.20392 14.8665 2.11358 14.9102 2.01357C15.0828 1.64646 15.3561 1.33658 15.6981 1.12043C16.0401 0.904282 16.4364 0.790874 16.8404 0.793572C16.9662 0.783653 17.0926 0.783653 17.2185 0.793572C17.6624 0.879505 18.0682 1.10331 18.3788 1.43343C18.6894 1.76354 18.8891 2.18332 18.9497 2.63357C18.9575 2.76012 18.9575 2.88703 18.9497 3.01357V15.2936C18.9538 15.7655 18.8039 16.2259 18.5231 16.6041C18.2422 16.9824 17.8458 17.2578 17.3945 17.3882C16.9432 17.5187 16.4618 17.4969 16.0239 17.3263C15.5861 17.1557 15.2158 16.8457 14.9699 16.4436C14.8728 16.267 14.7182 16.1293 14.5321 16.0536C12.9004 15.4036 8.10477 13.4436 8.10477 13.4436C8.02824 13.3999 7.94355 13.3727 7.85603 13.3636C7.65704 13.3636 7.65703 13.5636 7.65703 13.7436V17.0836C7.67474 17.3569 7.63636 17.6311 7.54432 17.8889C7.45228 18.1468 7.30854 18.3829 7.12196 18.5826C6.93539 18.7823 6.71 18.9414 6.45974 19.0499C6.20947 19.1584 5.9397 19.2142 5.66713 19.2136L5.59747 19.1636ZM5.23931 12.9436C5.19233 12.9396 5.14503 12.9456 5.10049 12.9611C5.05594 12.9766 5.01511 13.0013 4.98061 13.0336C4.94559 13.0765 4.91961 13.1261 4.90422 13.1793C4.88882 13.2326 4.88432 13.2885 4.89104 13.3436V17.0836C4.88139 17.1869 4.89325 17.2912 4.92577 17.3898C4.9583 17.4883 5.01081 17.579 5.08002 17.6561C5.14923 17.7332 5.23364 17.795 5.32785 17.8376C5.42206 17.8802 5.52399 17.9026 5.62729 17.9036C5.732 17.9044 5.8357 17.8827 5.93141 17.84C6.02712 17.7973 6.11265 17.7346 6.18234 17.656C6.25202 17.5775 6.30424 17.4849 6.33549 17.3845C6.36674 17.284 6.37634 17.178 6.36361 17.0736V14.6936C6.36361 14.2536 6.36361 13.8036 6.36361 13.3636C6.37376 13.2479 6.33796 13.1329 6.26407 13.0436C6.22972 13.0076 6.18775 12.9799 6.14122 12.9626C6.0947 12.9453 6.04486 12.9388 5.99548 12.9436H5.22935H5.23931ZM16.8205 2.08357C16.7059 2.08742 16.5932 2.1141 16.489 2.16207C16.3848 2.21003 16.2911 2.27833 16.2134 2.36298C16.1356 2.44764 16.0754 2.54698 16.0361 2.65523C15.9969 2.76348 15.9794 2.87849 15.9847 2.99357V15.3536C15.9757 15.5625 16.0456 15.7672 16.1802 15.9266C16.3149 16.0861 16.5044 16.1886 16.711 16.2136H16.8205C17.0169 16.218 17.2089 16.1536 17.3632 16.0313C17.5175 15.9091 17.6246 15.7366 17.6662 15.5436C17.6761 15.4338 17.6761 15.3233 17.6662 15.2136V2.93357C17.6555 2.77039 17.5982 2.61378 17.5011 2.48252C17.404 2.35127 17.2714 2.25094 17.119 2.19357C17.0287 2.1355 16.9267 2.09795 16.8205 2.08357ZM14.4724 3.86357C14.3927 3.87366 14.3154 3.89733 14.2436 3.93357L7.97542 6.48357C7.88008 6.51103 7.79715 6.57092 7.74089 6.653C7.68463 6.73508 7.65854 6.83426 7.66699 6.93357V11.4936C7.65798 11.5916 7.68268 11.6897 7.737 11.7716C7.79133 11.8535 7.87198 11.9142 7.96546 11.9436L14.2336 14.5036C14.3132 14.5377 14.3968 14.5612 14.4824 14.5736C14.5283 14.5764 14.5735 14.5614 14.6087 14.5316C14.6439 14.5018 14.6664 14.4595 14.6714 14.4136C14.6777 14.3437 14.6777 14.2734 14.6714 14.2036V4.20357C14.6814 4.08357 14.6813 3.90357 14.4724 3.90357V3.86357ZM5.95564 11.6036C6.07074 11.6138 6.18519 11.5778 6.27403 11.5036C6.34697 11.4138 6.38259 11.2991 6.3735 11.1836C6.3735 10.7136 6.3735 10.2436 6.3735 9.77357V8.70357C6.3735 8.21357 6.3735 7.70357 6.3735 7.23357C6.38215 7.18172 6.37839 7.12854 6.36245 7.07846C6.34651 7.02839 6.31886 6.98287 6.28187 6.94569C6.24488 6.90851 6.19961 6.88076 6.14979 6.86474C6.09996 6.84871 6.04707 6.84488 5.99548 6.85357H3.08022C2.73779 6.8529 2.40678 6.97725 2.14873 7.2035C1.89069 7.42975 1.72319 7.7425 1.67737 8.08357C1.59231 8.8211 1.59231 9.56604 1.67737 10.3036C1.68612 10.4898 1.73206 10.6723 1.81243 10.8403C1.8928 11.0083 2.00591 11.1584 2.14515 11.2815C2.28439 11.4047 2.44687 11.4984 2.62289 11.5572C2.79891 11.616 2.98492 11.6385 3.1698 11.6236H5.99548L5.95564 11.6036Z" fill="#A8A9AE"/>
</svg>
