<svg width="45" height="66" viewBox="0 0 45 66" fill="none" xmlns="http://www.w3.org/2000/svg">
<path fill-rule="evenodd" clip-rule="evenodd" d="M3.16506 1.57651C2.38133 1.50058 1.59182 1.5 0.75 1.5C0.335786 1.5 0 1.16421 0 0.75C0 0.335786 0.335786 5.4024e-08 0.75 5.4024e-08H0.766944C1.59143 -3.87988e-06 2.44771 -7.99447e-06 3.30969 0.0834966C3.72197 0.123437 4.02382 0.490036 3.98388 0.902319C3.94394 1.3146 3.57734 1.61645 3.16506 1.57651Z" fill="#A8A9AE"/>
<path fill-rule="evenodd" clip-rule="evenodd" d="M7.64709 1.376C7.73175 0.970535 8.12908 0.710468 8.53455 0.795128C9.60438 1.0185 10.6606 1.2871 11.7008 1.5994C12.0975 1.7185 12.3226 2.13666 12.2035 2.53338C12.0843 2.9301 11.6662 3.15515 11.2695 3.03604C10.2703 2.73606 9.25565 2.47804 8.22796 2.26346C7.82249 2.1788 7.56243 1.78147 7.64709 1.376ZM16.7627 4.34105C16.9477 3.97048 17.3982 3.82011 17.7687 4.00518C19.718 4.97873 21.5811 6.11791 23.3375 7.41011C23.6711 7.65559 23.7426 8.12505 23.4971 8.45869C23.2516 8.79233 22.7822 8.8638 22.4485 8.61833C20.7611 7.37682 18.9712 6.28239 17.0985 5.34713C16.728 5.16205 16.5776 4.71161 16.7627 4.34105ZM27.1852 11.6917C27.4838 11.4046 27.9586 11.4139 28.2457 11.7125C28.998 12.4951 29.7193 13.3119 30.4071 14.1614C31.0965 15.0131 31.7471 15.8912 32.3577 16.793C32.59 17.136 32.5002 17.6023 32.1572 17.8345C31.8143 18.0668 31.3479 17.977 31.1157 17.634C30.5289 16.7675 29.9038 15.9237 29.2412 15.1053C28.5803 14.2889 27.8872 13.504 27.1643 12.7521C26.8773 12.4535 26.8866 11.9787 27.1852 11.6917ZM34.5604 22.1312C34.9378 21.9604 35.3822 22.128 35.5529 22.5054C36.4534 24.4961 37.1832 26.5607 37.7342 28.6762C37.8386 29.077 37.5983 29.4866 37.1975 29.591C36.7966 29.6954 36.387 29.4551 36.2826 29.0542C35.7531 27.021 35.0517 25.0368 34.1862 23.1236C34.0155 22.7462 34.183 22.3019 34.5604 22.1312ZM38.0297 34.4432C38.4424 34.408 38.8054 34.7141 38.8406 35.1268C38.9329 36.2117 38.9796 37.3034 38.9797 38.3993V40.7743C38.9797 41.1885 38.6439 41.5243 38.2297 41.5243C37.8155 41.5243 37.4797 41.1885 37.4797 40.7743V38.3994C37.4797 37.3461 37.4348 36.2967 37.346 35.2541C37.3109 34.8414 37.6169 34.4783 38.0297 34.4432ZM38.2297 44.7743C38.6439 44.7743 38.9797 45.1101 38.9797 45.5243V50.2743C38.9797 50.6885 38.6439 51.0243 38.2297 51.0243C37.8155 51.0243 37.4797 50.6885 37.4797 50.2743V45.5243C37.4797 45.1101 37.8155 44.7743 38.2297 44.7743ZM38.2297 54.2743C38.6439 54.2743 38.9797 54.6101 38.9797 55.0243V57.3993C38.9797 57.8135 38.6439 58.1493 38.2297 58.1493C37.8155 58.1493 37.4797 57.8135 37.4797 57.3993V55.0243C37.4797 54.6101 37.8155 54.2743 38.2297 54.2743Z" fill="#A8A9AE"/>
<path fill-rule="evenodd" clip-rule="evenodd" d="M33.4611 58.2383C33.788 57.9838 34.2592 58.0425 34.5137 58.3693L38.2753 63.2004L42.8986 58.3146C43.1833 58.0137 43.658 58.0006 43.9589 58.2853C44.2598 58.57 44.2729 59.0447 43.9882 59.3456L38.1646 65.4998L33.3301 59.2908C33.0757 58.964 33.1343 58.4928 33.4611 58.2383Z" fill="#A8A9AE"/>
</svg>
