<svg width="19" height="20" viewBox="0 0 19 20" fill="none" xmlns="http://www.w3.org/2000/svg">
<path d="M9.29284 1.78524C9.83889 1.78414 10.3727 1.94787 10.8251 2.25523L16.2674 5.94524C16.6397 6.19598 16.9444 6.53539 17.1544 6.9332C17.3645 7.33101 17.4733 7.77488 17.4713 8.22523V15.4752C17.4713 16.2046 17.1831 16.9041 16.6699 17.4198C16.1568 17.9355 15.4609 18.2252 14.7352 18.2252H3.85047C3.13172 18.2147 2.44597 17.9204 1.94142 17.4058C1.43688 16.8912 1.15409 16.1977 1.15416 15.4752V8.22523C1.15215 7.77488 1.26101 7.33101 1.47106 6.9332C1.68112 6.53539 1.98583 6.19598 2.35804 5.94524L7.80042 2.25523C8.2528 1.94787 8.7866 1.78414 9.33265 1.78524M9.33265 0.615234C8.55688 0.620347 7.79952 0.853229 7.1537 1.28524L1.71133 4.98524C1.18296 5.34218 0.750365 5.8246 0.451855 6.38977C0.153346 6.95493 -0.00186363 7.58537 1.68867e-05 8.22523V15.4752C1.68867e-05 16.5122 0.409872 17.5068 1.13944 18.24C1.869 18.9733 2.85851 19.3852 3.89027 19.3852H14.775C15.8068 19.3852 16.7963 18.9733 17.5258 18.24C18.2554 17.5068 18.6653 16.5122 18.6653 15.4752V8.22523C18.6672 7.58537 18.5119 6.95493 18.2134 6.38977C17.9149 5.8246 17.4823 5.34218 16.954 4.98524L11.5116 1.28524C10.8658 0.853229 10.1084 0.620347 9.33265 0.615234Z" fill="#231F20"/>
</svg>
