<svg width="20" height="20" viewBox="0 0 20 20" fill="none" xmlns="http://www.w3.org/2000/svg">
<path d="M4.81002 7.17013C4.45233 6.89947 4.15301 6.55933 3.93002 6.17013C3.70155 5.80049 3.54856 5.38925 3.47991 4.96015C3.41125 4.53106 3.42829 4.09261 3.53002 3.67013C3.68901 3.02606 4.03732 2.44439 4.53002 2.00013C5.00511 1.55069 5.6044 1.25453 6.25002 1.15013C6.88928 1.06527 7.53939 1.16957 8.12002 1.45013C8.71398 1.7234 9.21467 2.16498 9.56002 2.72013C9.90463 3.27995 10.0753 3.92948 10.0504 4.58639C10.0254 5.24331 9.80606 5.87803 9.42002 6.41013C9.04374 6.93655 8.52015 7.33991 7.91516 7.56945C7.31017 7.799 6.65079 7.84446 6.02002 7.70013C5.58551 7.60553 5.17418 7.42536 4.81002 7.17013ZM9.08002 8.29013C9.95168 7.74517 10.6099 6.9176 10.9448 5.94569C11.2797 4.97377 11.271 3.91637 10.92 2.95013C10.6223 2.10685 10.0746 1.37431 9.35002 0.850133C8.63809 0.332785 7.78929 0.0370965 6.91002 0.000133405C6.02526 -0.0268446 5.15226 0.208297 4.40074 0.676006C3.64922 1.14372 3.05272 1.82312 2.68619 2.62885C2.31966 3.43457 2.19946 4.33066 2.3407 5.20449C2.48194 6.07832 2.87832 6.89091 3.48002 7.54013C4.18123 8.29583 5.12355 8.78396 6.14533 8.92081C7.16711 9.05766 8.20467 8.83468 9.08002 8.29013Z" fill="black"/>
<path d="M6.74002 11.3201C9.74002 11.3201 12.32 12.8301 12.32 14.6201C12.32 16.4101 9.77002 17.9501 6.74002 17.9501C3.71002 17.9501 1.15002 16.4401 1.15002 14.6601C1.15002 12.8801 3.71002 11.3201 6.74002 11.3201ZM6.74002 10.1601C3.02002 10.1601 0.0200195 12.1601 0.0200195 14.6201C0.0200195 17.0801 3.02002 19.0801 6.76002 19.0801C10.5 19.0801 13.51 17.0801 13.51 14.6201C13.51 12.1601 10.5 10.1601 6.74002 10.1601Z" fill="black"/>
<path d="M13.66 9.56013H13.15C12.9962 9.56013 12.8487 9.49903 12.7399 9.39025C12.6311 9.28148 12.57 9.13396 12.57 8.98013C12.57 8.82631 12.6311 8.67878 12.7399 8.57001C12.8487 8.46124 12.9962 8.40013 13.15 8.40013H13.48C13.8604 8.42442 14.2417 8.36995 14.6 8.24013C14.9506 8.11016 15.2706 7.90931 15.54 7.65013C15.8101 7.39199 16.0248 7.08152 16.171 6.73766C16.3171 6.39379 16.3916 6.02376 16.39 5.65013C16.3934 5.27544 16.3185 4.90418 16.17 4.56013C16.0264 4.21584 15.8117 3.90574 15.54 3.65013C15.2706 3.39095 14.9506 3.19011 14.6 3.06013C14.2481 2.9488 13.8771 2.91135 13.51 2.95013H13.15C12.9962 2.95013 12.8487 2.88903 12.7399 2.78026C12.6311 2.67148 12.57 2.52396 12.57 2.37013C12.57 2.21631 12.6311 2.06878 12.7399 1.96001C12.8487 1.85124 12.9962 1.79013 13.15 1.79013H13.48C13.9989 1.73891 14.5228 1.79334 15.02 1.95013C15.5181 2.13816 15.9737 2.42374 16.36 2.79013C16.7424 3.15633 17.0484 3.59481 17.26 4.08013C17.4649 4.56945 17.5704 5.09464 17.5704 5.62513C17.5704 6.15562 17.4649 6.68081 17.26 7.17013C17.0484 7.65546 16.7424 8.09394 16.36 8.46013C15.9764 8.83729 15.5206 9.13319 15.02 9.33013C14.5831 9.48381 14.1232 9.5616 13.66 9.56013Z" fill="black"/>
<path d="M14.64 17.9501C14.4969 17.9462 14.3602 17.8894 14.2564 17.7907C14.1526 17.692 14.089 17.5584 14.0778 17.4156C14.0667 17.2728 14.1087 17.1309 14.1959 17.0173C14.2831 16.9037 14.4092 16.8263 14.55 16.8001C16.49 16.4901 17.9 15.3801 17.9 14.1601C17.9 12.9401 16.49 11.8101 14.56 11.5101C14.4784 11.5073 14.3983 11.4872 14.3249 11.4512C14.2516 11.4153 14.1867 11.3642 14.1345 11.3014C14.0822 11.2386 14.0438 11.1655 14.0218 11.0868C13.9998 11.0082 13.9946 10.9257 14.0067 10.8449C14.0187 10.7642 14.0477 10.6868 14.0917 10.618C14.1357 10.5492 14.1938 10.4904 14.2621 10.4456C14.3304 10.4008 14.4073 10.3709 14.488 10.3579C14.5686 10.3449 14.6511 10.3491 14.73 10.3701C17.28 10.7601 19.06 12.3701 19.06 14.1601C19.06 15.9501 17.28 17.5501 14.73 17.9501H14.64Z" fill="black"/>
</svg>
