<svg width="38" height="33" viewBox="0 0 38 33" fill="none" xmlns="http://www.w3.org/2000/svg">
<path fill-rule="evenodd" clip-rule="evenodd" d="M0.708008 0.179688H37.5709V26.6497H7.48361L0.708008 32.9997V0.179688ZM17.453 15.2597L20.3483 20.3897H23.3829L20.2488 15.0597C21.1092 14.8757 21.8785 14.3951 22.4236 13.7011C22.9687 13.0072 23.2552 12.1436 23.2336 11.2597C23.2398 10.5548 23.0503 9.86224 22.6864 9.25969C22.3185 8.62194 21.7621 8.11516 21.0945 7.80969C20.2885 7.42076 19.4013 7.23213 18.5076 7.25969H13.5926V20.3897H16.2193V15.2597H17.453ZM18.4479 13.2597H16.2591V9.41969H18.4479C19.0275 9.37419 19.602 9.55709 20.0498 9.92969C20.2294 10.1111 20.3685 10.3289 20.4577 10.5686C20.5469 10.8083 20.5842 11.0643 20.5672 11.3197C20.5806 11.5838 20.5418 11.8479 20.453 12.0968C20.3642 12.3456 20.2271 12.5744 20.0498 12.7697C19.8231 12.9592 19.5613 13.1018 19.2796 13.1893C18.9979 13.2768 18.7017 13.3075 18.4082 13.2797L18.4479 13.2597Z" fill="#BF1249"/>
</svg>
