<svg width="52" height="14" viewBox="0 0 52 14" fill="none" xmlns="http://www.w3.org/2000/svg">
<path fill-rule="evenodd" clip-rule="evenodd" d="M6.96254 8.47019C7.79321 8.29515 8.53664 7.83322 9.06373 7.16462C9.59082 6.49602 9.86827 5.66298 9.84788 4.81019C9.86059 4.1072 9.67798 3.41459 9.32056 2.81019C8.95829 2.19825 8.42085 1.71034 7.7784 1.41018C6.99904 1.0385 6.1434 0.856911 5.28107 0.880185H0.535156V13.6202H3.07228V8.67018H4.26622L7.05208 13.6202H9.94738L6.96254 8.47019ZM5.19153 6.76018H3.07228V3.00018H5.19153C5.75093 2.95714 6.30477 3.1367 6.7337 3.50018C6.90867 3.6741 7.04449 3.88371 7.13202 4.11486C7.21956 4.34602 7.25676 4.59335 7.24112 4.84018C7.25555 5.09746 7.21803 5.355 7.13082 5.59732C7.04362 5.83964 6.90854 6.06172 6.7337 6.25018C6.3037 6.61259 5.75162 6.79516 5.19153 6.76018Z" fill="#231F20"/>
<path d="M45.7466 0.412109V5.06195C46.1709 4.56691 46.5953 4.21331 47.0373 3.98347C47.4616 3.77131 48.0097 3.64755 48.6461 3.64755C49.6362 3.64755 50.4318 3.93043 51.0153 4.47851C51.5987 5.02659 51.8993 5.83987 51.8993 6.90067V13.0003H48.9113V7.62555C48.9113 6.60011 48.4163 6.08739 47.4616 6.08739C46.3124 6.08739 45.7466 6.81227 45.7466 8.26203V13.0003H42.7941V0.412109H45.7466Z" fill="#231F20"/>
<path d="M38.4134 9.41123L41.2776 9.42891C41.1185 10.6488 40.6411 11.5859 39.8455 12.2577C39.0499 12.9119 37.9891 13.2478 36.6631 13.2478C35.2487 13.2478 34.0995 12.8058 33.2155 11.9395C32.3315 11.0731 31.8895 9.94163 31.8895 8.52723C31.8895 7.05979 32.3315 5.87523 33.2155 4.97355C34.0995 4.08955 35.2664 3.62987 36.7162 3.62987C37.9891 3.62987 39.0499 3.96579 39.8632 4.60227C40.6765 5.25643 41.1362 6.12275 41.2069 7.20123H38.3074C38.2366 6.75923 38.0775 6.42331 37.7946 6.17579C37.5118 5.92827 37.1758 5.80451 36.7515 5.80451C36.1681 5.80451 35.7084 6.05203 35.3902 6.51171C35.0719 6.98907 34.9128 7.64323 34.9128 8.49187C34.9128 9.30515 35.0719 9.92395 35.3902 10.3483C35.7084 10.7903 36.1504 11.0024 36.7515 11.0024C37.6709 11.0024 38.2189 10.472 38.4134 9.41123Z" fill="#231F20"/>
<path d="M30.6736 13.0003H27.6326C27.5442 12.7527 27.4912 12.4522 27.4912 12.134C26.6426 12.9119 25.6348 13.2832 24.4679 13.2832C23.4778 13.2832 22.6822 13.0356 22.1165 12.5406C21.5507 12.0455 21.2678 11.356 21.2678 10.472C21.2678 10.0477 21.3386 9.65875 21.4977 9.32283C21.6391 9.00459 21.8159 8.73939 22.0281 8.56259C22.2226 8.38579 22.5231 8.20899 22.9121 8.06755C23.301 7.92611 23.6193 7.83771 23.9022 7.78467C24.1674 7.73163 24.5386 7.66091 25.0337 7.59019C26.1652 7.41339 26.8194 7.30731 26.9608 7.23659C27.279 7.11283 27.4382 6.86531 27.4382 6.49403C27.4382 5.85755 26.9608 5.52163 26.0414 5.52163C25.5464 5.52163 25.1928 5.61003 24.9806 5.75147C24.7685 5.91059 24.6094 6.21115 24.5033 6.67083H21.6745C21.8513 4.63763 23.3187 3.61219 26.0768 3.61219C27.5442 3.61219 28.6581 3.89507 29.436 4.44315C29.7719 4.69067 30.0018 4.99123 30.1255 5.30947C30.2493 5.64539 30.32 6.12275 30.32 6.72387V10.3836C30.32 11.5859 30.4261 12.4699 30.6736 13.0003ZM27.4382 8.72171C27.2967 8.79243 27.1199 8.86315 26.9431 8.91619C26.7486 8.98691 26.5895 9.02227 26.4834 9.03995C26.3774 9.07531 26.1829 9.11067 25.9354 9.16371C25.6878 9.21675 25.5287 9.25211 25.458 9.25211C24.7154 9.41123 24.3442 9.78251 24.3442 10.3659C24.3442 10.7195 24.4502 10.9847 24.6624 11.1615C24.8746 11.356 25.1574 11.4444 25.5287 11.4444C26.0591 11.4444 26.5011 11.303 26.8724 10.9847C27.2437 10.6665 27.4382 10.2245 27.4382 9.65875V8.72171Z" fill="#231F20"/>
<path d="M20.3073 9.16371H13.5182C13.5182 9.83555 13.7127 10.366 14.084 10.7372C14.4552 11.1085 14.968 11.2853 15.6044 11.2853C16.347 11.2853 16.9304 10.9317 17.3194 10.2245H20.1305C19.83 11.2146 19.2819 11.9571 18.4863 12.4875C17.6907 13.0179 16.7183 13.2832 15.5691 13.2832C14.1193 13.2832 12.9171 12.8588 11.98 12.0102C11.043 11.1615 10.5833 9.99467 10.5833 8.54491C10.5833 7.11283 11.0253 5.94595 11.9447 5.02659C12.8464 4.10723 14.0132 3.64755 15.463 3.64755C16.9481 3.64755 18.1327 4.12491 18.999 5.06195C19.8653 5.99899 20.3073 7.27195 20.3073 8.89851V9.16371ZM17.3548 7.44875C17.3017 6.91835 17.1072 6.47635 16.789 6.15811C16.4708 5.83987 16.0288 5.66307 15.4807 5.66307C14.3845 5.66307 13.7304 6.26419 13.5536 7.44875H17.3548Z" fill="#231F20"/>
</svg>
