<svg width="16" height="16" viewBox="0 0 16 16" fill="none" xmlns="http://www.w3.org/2000/svg">
<path d="M13.06 10.3333L11.8466 9.46667C12.0466 8.74667 12.06 7.96667 11.8466 7.18667L13.06 6.33333L12.0933 4.66667L10.74 5.28C10.2133 4.74667 9.54664 4.33333 8.76664 4.14L8.6333 2.66667H6.69997L6.56664 4.14C5.78664 4.33333 5.11997 4.74667 4.5933 5.28L3.23997 4.66667L2.2733 6.33333L3.48664 7.18667C3.2733 7.96667 3.28664 8.74667 3.48664 9.46667L2.2733 10.3333L3.23997 12L4.5933 11.38C5.11997 11.9067 5.78664 12.3067 6.56664 12.5133L6.69997 14H8.6333L8.76664 12.5133C9.54664 12.3067 10.2133 11.9067 10.74 11.38L12.0933 12L13.06 10.3333ZM8.99997 2C9.17997 2 9.3333 2.13333 9.3333 2.30667L9.4533 3.66667C9.95997 3.85333 10.4133 4.12667 10.82 4.45333L12.0533 3.87333C12.2066 3.79333 12.4 3.84667 12.4933 4L13.8266 6.33333C13.92 6.47333 13.8666 6.66667 13.72 6.76667L12.6066 7.54667C12.6933 8.08 12.6866 8.60667 12.6066 9.12L13.72 9.9C13.8666 10 13.92 10.1933 13.8266 10.3333L12.4933 12.6667C12.4 12.8067 12.2066 12.86 12.0533 12.78L10.82 12.2067C10.4133 12.5333 9.95997 12.8 9.4533 13L9.3333 14.3333C9.3333 14.5267 9.17997 14.6667 8.99997 14.6667H6.3333C6.2449 14.6667 6.16011 14.6315 6.0976 14.569C6.03509 14.5065 5.99997 14.4217 5.99997 14.3333L5.87997 13C5.3733 12.8 4.91997 12.5333 4.5133 12.2067L3.27997 12.78C3.12664 12.86 2.9333 12.8067 2.83997 12.6667L1.50664 10.3333C1.4133 10.1933 1.46664 10 1.6133 9.9L2.72664 9.12C2.64664 8.60667 2.63997 8.08 2.72664 7.54667L1.6133 6.76667C1.46664 6.66667 1.4133 6.47333 1.50664 6.33333L2.83997 4C2.9333 3.84667 3.12664 3.79333 3.27997 3.87333L4.5133 4.45333C4.91997 4.12667 5.3733 3.85333 5.87997 3.66667L5.99997 2.30667C5.99997 2.13333 6.1533 2 6.3333 2H8.99997ZM7.66664 6C8.28548 6 8.87897 6.24583 9.31655 6.68342C9.75414 7.121 9.99997 7.7145 9.99997 8.33333C9.99997 8.95217 9.75414 9.54566 9.31655 9.98325C8.87897 10.4208 8.28548 10.6667 7.66664 10.6667C7.0478 10.6667 6.45431 10.4208 6.01672 9.98325C5.57914 9.54566 5.3333 8.95217 5.3333 8.33333C5.3333 7.7145 5.57914 7.121 6.01672 6.68342C6.45431 6.24583 7.0478 6 7.66664 6ZM7.66664 6.66667C7.22461 6.66667 6.80069 6.84226 6.48813 7.15482C6.17557 7.46738 5.99997 7.89131 5.99997 8.33333C5.99997 8.77536 6.17557 9.19928 6.48813 9.51184C6.80069 9.82441 7.22461 10 7.66664 10C8.10866 10 8.53259 9.82441 8.84515 9.51184C9.15771 9.19928 9.3333 8.77536 9.3333 8.33333C9.3333 7.89131 9.15771 7.46738 8.84515 7.15482C8.53259 6.84226 8.10866 6.66667 7.66664 6.66667Z" fill="black"/>
</svg>
