<svg width="17" height="17" viewBox="0 0 17 17" fill="none" xmlns="http://www.w3.org/2000/svg">
<path d="M8.245 16.2991C7.4957 16.2961 6.77026 16.0341 6.19049 15.557C5.61071 15.0799 5.21198 14.4168 5.06121 13.6791V13.5191H3.53891C3.13627 13.5214 2.73832 13.4324 2.37465 13.2587C2.01099 13.085 1.69095 12.831 1.43849 12.5158C1.18602 12.2005 1.0076 11.8321 0.916478 11.4379C0.825358 11.0437 0.823908 10.6339 0.912227 10.2391L2.35498 4.85907C2.65467 3.49306 3.41007 2.27116 4.49596 1.39621C5.58186 0.521269 6.93292 0.0459141 8.32467 0.0490641C8.68803 0.0488099 9.05074 0.0789137 9.40913 0.139064C9.54107 0.149673 9.66337 0.212527 9.7492 0.313796C9.83503 0.415066 9.87733 0.546457 9.86677 0.679065C9.85622 0.811673 9.79373 0.934637 9.69297 1.0209C9.59221 1.10717 9.4614 1.14967 9.32946 1.13906C9.00126 1.07841 8.66821 1.04829 8.33451 1.04906C7.15612 1.03742 6.00972 1.43357 5.08756 2.17103C4.16541 2.90849 3.5237 3.94235 3.27025 5.09906L1.81767 10.4891C1.7675 10.7391 1.77324 10.9972 1.83455 11.2446C1.89586 11.4921 2.01124 11.7228 2.17219 11.92C2.33313 12.1172 2.53562 12.2759 2.76513 12.3847C2.99463 12.4935 3.24532 12.5496 3.49907 12.5491H12.9909C13.2549 12.5491 13.5154 12.4877 13.7518 12.3697C13.9883 12.2518 14.1944 12.0804 14.354 11.8691C14.5144 11.6605 14.6239 11.4172 14.674 11.1585C14.7241 10.8997 14.7134 10.6328 14.6426 10.3791L13.9063 7.27906C13.8764 7.15046 13.8983 7.01519 13.9673 6.90277C14.0363 6.79036 14.1467 6.70993 14.2744 6.67907H14.3839C14.4954 6.67976 14.6035 6.71736 14.6916 6.78604C14.7798 6.85473 14.843 6.95068 14.8714 7.05907L15.5877 10.1491C15.7002 10.5461 15.7175 10.9644 15.6379 11.3694C15.5583 11.7745 15.3843 12.1548 15.1301 12.4791C14.8809 12.8117 14.5576 13.0809 14.186 13.265C13.8145 13.4491 13.4051 13.543 12.9909 13.5391H11.4686V13.6991C11.3107 14.4389 10.904 15.1015 10.3168 15.5751C9.72956 16.0487 8.99786 16.3044 8.245 16.2991ZM6.11579 13.7891C6.26945 14.235 6.5576 14.6217 6.9401 14.8954C7.3226 15.1691 7.78045 15.3162 8.24998 15.3162C8.71951 15.3162 9.17736 15.1691 9.55986 14.8954C9.94236 14.6217 10.2305 14.235 10.3842 13.7891L10.4737 13.5191H6.02628L6.11579 13.7891ZM13.767 5.19907C13.2593 5.19907 12.763 5.04775 12.3409 4.76426C11.9188 4.48076 11.5897 4.07782 11.3954 3.60639C11.2011 3.13495 11.1504 2.6162 11.2494 2.11573C11.3484 1.61526 11.5929 1.15555 11.9519 0.794731C12.3109 0.433911 12.7682 0.188188 13.2661 0.0886378C13.7641 -0.0109121 14.2803 0.0401799 14.7493 0.235454C15.2184 0.430728 15.6193 0.761416 15.9013 1.1857C16.1834 1.60997 16.3339 2.10879 16.3339 2.61906C16.3339 3.30332 16.0635 3.95956 15.5821 4.4434C15.1007 4.92724 14.4478 5.19907 13.767 5.19907ZM13.767 1.02906C13.4541 1.02906 13.1482 1.12232 12.8881 1.29703C12.6279 1.47174 12.4252 1.72006 12.3054 2.0106C12.1857 2.30113 12.1544 2.62083 12.2154 2.92926C12.2765 3.23769 12.4271 3.521 12.6483 3.74337C12.8695 3.96573 13.1515 4.11716 13.4584 4.17851C13.7653 4.23986 14.0833 4.20838 14.3723 4.08804C14.6614 3.96769 14.9085 3.7639 15.0824 3.50242C15.2562 3.24095 15.349 2.93354 15.349 2.61906C15.3529 2.40775 15.3149 2.19776 15.2372 2.00138C15.1595 1.805 15.0436 1.62616 14.8963 1.47532C14.749 1.32448 14.5733 1.20468 14.3794 1.1229C14.1855 1.04113 13.9773 0.999027 13.767 0.999065V1.02906Z" fill="#A8A9AE"/>
</svg>
