<svg width="12" height="12" viewBox="0 0 12 12" fill="none" xmlns="http://www.w3.org/2000/svg">
<rect width="12" height="12" rx="6" transform="matrix(1 0 0 -1 0 12)" fill="#F3F4F7"/>
<path d="M8.53475 6.92115L6.19236 4.61576C6.14125 4.5652 6.07226 4.53684 6.00037 4.53684C5.92848 4.53684 5.85949 4.5652 5.80838 4.61576L3.46549 6.92065C3.41407 6.97118 3.34485 6.9995 3.27275 6.9995C3.20065 6.9995 3.13144 6.97118 3.08001 6.92065C3.05469 6.89596 3.03456 6.86645 3.02082 6.83387C3.00708 6.80128 3 6.76627 3 6.73091C3 6.69554 3.00708 6.66053 3.02082 6.62795C3.03456 6.59536 3.05469 6.56585 3.08001 6.54117L5.4219 4.23627C5.57615 4.08482 5.78369 3.99996 5.99987 3.99996C6.21605 3.99996 6.42359 4.08482 6.57784 4.23627L8.91973 6.54117C8.94513 6.56586 8.96532 6.5954 8.97911 6.62803C8.9929 6.66066 9 6.69573 9 6.73116C9 6.76658 8.9929 6.80165 8.97911 6.83428C8.96532 6.86692 8.94513 6.89645 8.91973 6.92115C8.86831 6.97168 8.79909 7 8.72699 7C8.65489 7 8.58568 6.97168 8.53425 6.92115" fill="black"/>
</svg>
