<svg width="16" height="14" viewBox="0 0 16 14" fill="none" xmlns="http://www.w3.org/2000/svg">
<path d="M7.77924 2.97949H14.7043M1.302 2.97949H3.14276M7.77924 11.0596H14.7043M1.302 11.0596H3.14276M8.23701 7.01953H1.302M14.7042 7.01953H12.8635M7.55039 2.96027C7.55039 4.02618 6.69073 4.89026 5.63021 4.89026C4.56968 4.89026 3.71002 4.02618 3.71002 2.96027C3.71002 1.89436 4.56968 1.03027 5.63021 1.03027C6.69073 1.03027 7.55039 1.89436 7.55039 2.96027ZM7.55039 11.0394C7.55039 12.1053 6.69073 12.9694 5.63021 12.9694C4.56968 12.9694 3.71002 12.1053 3.71002 11.0394C3.71002 9.97346 4.56968 9.10938 5.63021 9.10938C6.69073 9.10938 7.55039 9.97346 7.55039 11.0394ZM12.3062 7.00034C12.3062 8.06625 11.4466 8.93033 10.3861 8.93033C9.32554 8.93033 8.46588 8.06625 8.46588 7.00034C8.46588 5.93443 9.32554 5.07031 10.3861 5.07031C11.4466 5.07031 12.3062 5.93443 12.3062 7.00034Z" stroke="#A8A9AE" stroke-width="1.16" stroke-miterlimit="10" stroke-linecap="round"/>
</svg>
