<svg width="98" height="33" viewBox="0 0 98 33" fill="none" xmlns="http://www.w3.org/2000/svg">
<path fill-rule="evenodd" clip-rule="evenodd" d="M0.708008 0.179688H37.5709V26.6497H7.48361L0.708008 32.9997V0.179688ZM17.453 15.2597L20.3483 20.3897H23.3829L20.2488 15.0597C21.1092 14.8757 21.8785 14.3951 22.4236 13.7011C22.9687 13.0072 23.2552 12.1436 23.2336 11.2597C23.2398 10.5548 23.0503 9.86224 22.6864 9.25969C22.3185 8.62194 21.7621 8.11516 21.0945 7.80969C20.2885 7.42076 19.4013 7.23213 18.5076 7.25969H13.5926V20.3897H16.2193V15.2597H17.453ZM18.4479 13.2597H16.2591V9.41969H18.4479C19.0275 9.37419 19.602 9.55709 20.0498 9.92969C20.2294 10.1111 20.3685 10.3289 20.4577 10.5686C20.5469 10.8083 20.5842 11.0643 20.5672 11.3197C20.5806 11.5838 20.5418 11.8479 20.453 12.0968C20.3642 12.3456 20.2271 12.5744 20.0498 12.7697C19.8231 12.9592 19.5613 13.1018 19.2796 13.1893C18.9979 13.2768 18.7017 13.3075 18.4082 13.2797L18.4479 13.2597Z" fill="#BF1249"/>
<path fill-rule="evenodd" clip-rule="evenodd" d="M52.9625 15.4702C53.7932 15.2951 54.5366 14.8332 55.0637 14.1646C55.5908 13.496 55.8683 12.663 55.8479 11.8102C55.8606 11.1072 55.678 10.4146 55.3206 9.81019C54.9583 9.19825 54.4209 8.71034 53.7784 8.41018C52.999 8.0385 52.1434 7.85691 51.2811 7.88019H46.5352V20.6202H49.0723V15.6702H50.2662L53.0521 20.6202H55.9474L52.9625 15.4702ZM51.1915 13.7602H49.0723V10.0002H51.1915C51.7509 9.95714 52.3048 10.1367 52.7337 10.5002C52.9087 10.6741 53.0445 10.8837 53.132 11.1149C53.2196 11.346 53.2568 11.5934 53.2411 11.8402C53.2555 12.0975 53.218 12.355 53.1308 12.5973C53.0436 12.8396 52.9085 13.0617 52.7337 13.2502C52.3037 13.6126 51.7516 13.7952 51.1915 13.7602Z" fill="#231F20"/>
<path d="M91.7466 7.41211V12.0619C92.1709 11.5669 92.5953 11.2133 93.0373 10.9835C93.4616 10.7713 94.0097 10.6475 94.6461 10.6475C95.6362 10.6475 96.4318 10.9304 97.0153 11.4785C97.5987 12.0266 97.8993 12.8399 97.8993 13.9007V20.0003H94.9113V14.6255C94.9113 13.6001 94.4163 13.0874 93.4616 13.0874C92.3124 13.0874 91.7466 13.8123 91.7466 15.262V20.0003H88.7941V7.41211H91.7466Z" fill="#231F20"/>
<path d="M84.4134 16.4112L87.2776 16.4289C87.1185 17.6488 86.6411 18.5859 85.8455 19.2577C85.0499 19.9119 83.9891 20.2478 82.6631 20.2478C81.2487 20.2478 80.0995 19.8058 79.2155 18.9395C78.3315 18.0731 77.8895 16.9416 77.8895 15.5272C77.8895 14.0598 78.3315 12.8752 79.2155 11.9735C80.0995 11.0895 81.2664 10.6299 82.7162 10.6299C83.9891 10.6299 85.0499 10.9658 85.8632 11.6023C86.6765 12.2564 87.1362 13.1227 87.2069 14.2012H84.3074C84.2366 13.7592 84.0775 13.4233 83.7946 13.1758C83.5118 12.9283 83.1758 12.8045 82.7515 12.8045C82.1681 12.8045 81.7084 13.052 81.3902 13.5117C81.0719 13.9891 80.9128 14.6432 80.9128 15.4919C80.9128 16.3051 81.0719 16.9239 81.3902 17.3483C81.7084 17.7903 82.1504 18.0024 82.7515 18.0024C83.6709 18.0024 84.2189 17.472 84.4134 16.4112Z" fill="#231F20"/>
<path d="M76.6736 20.0003H73.6326C73.5442 19.7527 73.4912 19.4522 73.4912 19.134C72.6426 19.9119 71.6348 20.2832 70.4679 20.2832C69.4778 20.2832 68.6822 20.0356 68.1165 19.5406C67.5507 19.0455 67.2678 18.356 67.2678 17.472C67.2678 17.0477 67.3386 16.6588 67.4977 16.3228C67.6391 16.0046 67.8159 15.7394 68.0281 15.5626C68.2226 15.3858 68.5231 15.209 68.9121 15.0675C69.301 14.9261 69.6193 14.8377 69.9022 14.7847C70.1674 14.7316 70.5386 14.6609 71.0337 14.5902C72.1652 14.4134 72.8194 14.3073 72.9608 14.2366C73.279 14.1128 73.4382 13.8653 73.4382 13.494C73.4382 12.8575 72.9608 12.5216 72.0414 12.5216C71.5464 12.5216 71.1928 12.61 70.9806 12.7515C70.7685 12.9106 70.6094 13.2111 70.5033 13.6708H67.6745C67.8513 11.6376 69.3187 10.6122 72.0768 10.6122C73.5442 10.6122 74.6581 10.8951 75.436 11.4431C75.7719 11.6907 76.0018 11.9912 76.1255 12.3095C76.2493 12.6454 76.32 13.1227 76.32 13.7239V17.3836C76.32 18.5859 76.4261 19.4699 76.6736 20.0003ZM73.4382 15.7217C73.2967 15.7924 73.1199 15.8631 72.9431 15.9162C72.7486 15.9869 72.5895 16.0223 72.4834 16.0399C72.3774 16.0753 72.1829 16.1107 71.9354 16.1637C71.6878 16.2167 71.5287 16.2521 71.458 16.2521C70.7154 16.4112 70.3442 16.7825 70.3442 17.3659C70.3442 17.7195 70.4502 17.9847 70.6624 18.1615C70.8746 18.356 71.1574 18.4444 71.5287 18.4444C72.0591 18.4444 72.5011 18.303 72.8724 17.9847C73.2437 17.6665 73.4382 17.2245 73.4382 16.6587V15.7217Z" fill="#231F20"/>
<path d="M66.3073 16.1637H59.5182C59.5182 16.8355 59.7127 17.366 60.084 17.7372C60.4552 18.1085 60.968 18.2853 61.6044 18.2853C62.347 18.2853 62.9304 17.9317 63.3194 17.2245H66.1305C65.83 18.2146 65.2819 18.9571 64.4863 19.4875C63.6907 20.018 62.7183 20.2832 61.5691 20.2832C60.1193 20.2832 58.9171 19.8588 57.98 19.0102C57.043 18.1615 56.5833 16.9947 56.5833 15.5449C56.5833 14.1128 57.0253 12.946 57.9447 12.0266C58.8464 11.1072 60.0132 10.6475 61.463 10.6475C62.9481 10.6475 64.1327 11.1249 64.999 12.0619C65.8653 12.999 66.3073 14.272 66.3073 15.8985V16.1637ZM63.3548 14.4488C63.3017 13.9184 63.1072 13.4764 62.789 13.1581C62.4708 12.8399 62.0288 12.6631 61.4807 12.6631C60.3845 12.6631 59.7304 13.2642 59.5536 14.4488H63.3548Z" fill="#231F20"/>
</svg>
