<svg width="16" height="17" viewBox="0 0 16 17" fill="none" xmlns="http://www.w3.org/2000/svg">
<path d="M6.96464 1.38094C8.11188 1.38094 9.23339 1.72286 10.1873 2.36347C11.1412 3.00408 11.8846 3.9146 12.3237 4.97989C12.7627 6.04519 12.8776 7.21741 12.6538 8.34832C12.43 9.47923 11.8775 10.518 11.0663 11.3334C10.255 12.1487 9.22142 12.704 8.09622 12.9289C6.97102 13.1539 5.80474 13.0384 4.74482 12.5972C3.68491 12.1559 2.77908 11.4087 2.14171 10.4499C1.50433 9.49117 1.16413 8.364 1.16413 7.21094C1.16413 5.66473 1.77521 4.18184 2.86302 3.0885C3.95084 1.99517 5.42623 1.38094 6.96464 1.38094ZM6.96464 0.210938C5.58716 0.210938 4.24057 0.621482 3.09524 1.39065C1.94991 2.15982 1.05727 3.25307 0.530137 4.53215C0.0029994 5.81124 -0.134899 7.21871 0.133833 8.57657C0.402566 9.93444 1.06591 11.1817 2.03993 12.1607C3.01395 13.1397 4.25492 13.8063 5.60593 14.0764C6.95694 14.3465 8.35732 14.2079 9.62994 13.6781C10.9026 13.1483 11.9903 12.2511 12.7556 11.0999C13.5208 9.94879 13.9293 8.59541 13.9293 7.21094C13.9293 5.35442 13.1955 3.57395 11.8893 2.26119C10.5832 0.948438 8.81177 0.210937 6.96464 0.210938Z" fill="#A8A9AE"/>
<path d="M11.9395 12.1094L15.362 15.5494" stroke="#A8A9AE" stroke-width="1.16" stroke-miterlimit="10" stroke-linecap="round"/>
</svg>
