<svg width="18" height="16" viewBox="0 0 18 16" fill="none" xmlns="http://www.w3.org/2000/svg">
<path d="M8.38592 15.2061C8.27006 15.216 8.15359 15.216 8.03772 15.2061C7.71365 15.1345 7.41788 14.9681 7.18772 14.7278C6.95756 14.4876 6.8033 14.1843 6.7443 13.8561C6.7443 13.7861 6.59501 9.98613 6.51542 7.97613C6.43582 7.89613 1.54067 4.83613 1.54067 4.78613C1.27009 4.57222 1.07185 4.27955 0.972995 3.94812C0.874138 3.61669 0.879496 3.26267 0.988358 2.93443C1.09722 2.60618 1.3043 2.31972 1.58123 2.1142C1.85817 1.90867 2.19146 1.7941 2.53562 1.78613L14.9227 0.786133H15.1118C15.5136 0.78771 15.9072 0.899898 16.25 1.11051C16.5928 1.32113 16.8717 1.62211 17.0563 1.98079C17.2409 2.33947 17.3241 2.74212 17.297 3.14502C17.27 3.54791 17.1336 3.93566 16.9027 4.26613L9.75896 14.4861C9.61703 14.6927 9.42983 14.8638 9.21175 14.9861C8.96137 15.1333 8.67593 15.2093 8.38592 15.2061ZM7.66959 7.89613L7.85863 13.6561C7.87911 13.7588 7.92994 13.8529 8.0045 13.9261C8.07906 13.9992 8.17386 14.048 8.27649 14.0661H8.38592C8.47445 14.0663 8.56165 14.0445 8.63976 14.0026C8.71787 13.9607 8.78448 13.9001 8.83366 13.8261L15.9177 3.60613C16.015 3.46571 16.0796 3.30507 16.1067 3.13613V3.00613L7.66959 7.89613ZM14.9427 1.89613L2.53562 2.89613C2.42967 2.90331 2.32836 2.94247 2.24492 3.00849C2.16148 3.07451 2.09984 3.16431 2.06802 3.26613C2.03615 3.36316 2.03231 3.46728 2.05697 3.56641C2.08163 3.66554 2.13372 3.7556 2.20727 3.82613L7.04277 6.82613L15.5595 2.08613L15.4401 2.03613C15.3136 1.98476 15.1786 1.95763 15.0421 1.95613H14.9427V1.89613Z" fill="#A8A9AE"/>
</svg>
