<svg width="14" height="13" viewBox="0 0 14 13" fill="none" xmlns="http://www.w3.org/2000/svg">
<path d="M6.20767 12.1389C6.1121 12.1543 6.01473 12.1543 5.91916 12.1389C5.65281 12.0854 5.40909 11.9513 5.22061 11.7547C5.03214 11.5582 4.90789 11.3084 4.86451 11.0389C4.86451 10.9689 4.67547 6.27892 4.67547 6.22892C4.67547 6.17892 0.63598 3.65891 0.576283 3.61891C0.370138 3.44264 0.220871 3.20871 0.147491 2.94688C0.0741107 2.68504 0.0799462 2.40718 0.164251 2.14869C0.248556 1.8902 0.407496 1.66276 0.620857 1.4954C0.834217 1.32804 1.09231 1.2283 1.36227 1.2089L11.5008 0.378915H11.6501C11.9812 0.377868 12.3062 0.468619 12.5894 0.641183C12.8726 0.813748 13.1029 1.06143 13.2551 1.35703C13.4073 1.65264 13.4755 1.98468 13.4521 2.31669C13.4287 2.64869 13.3147 2.96779 13.1226 3.2389L7.32207 11.5889C7.20956 11.7603 7.05989 11.9039 6.88429 12.0089C6.67228 12.1058 6.44027 12.1503 6.20767 12.1389ZM5.62068 6.13893L5.76995 10.8489C5.78858 10.9319 5.83019 11.0079 5.89007 11.0681C5.94994 11.1283 6.02559 11.1702 6.1082 11.1889C6.18582 11.1963 6.26405 11.1837 6.33544 11.1522C6.40683 11.1207 6.46905 11.0714 6.51616 11.0089L12.3167 2.6489C12.3967 2.53175 12.451 2.39881 12.4759 2.25892V2.1489L5.62068 6.13893ZM1.42197 2.0789C1.33529 2.08564 1.25246 2.1176 1.18355 2.17088C1.11465 2.22415 1.0627 2.29645 1.03398 2.37892C1.00549 2.45795 1.00068 2.54365 1.02014 2.62541C1.03959 2.70716 1.08243 2.78138 1.14341 2.83891L5.12321 5.33891L11.9983 1.40891C11.9621 1.35586 11.9128 1.31319 11.8553 1.28513C11.7977 1.25708 11.7338 1.2446 11.67 1.24891L1.42197 2.0789Z" fill="black"/>
</svg>
