<svg width="14" height="13" viewBox="0 0 14 13" fill="none" xmlns="http://www.w3.org/2000/svg">
<rect width="14" height="13" fill="#D0D0D0"/>
<g id="Dashboard">
<rect width="1440" height="1241" transform="translate(-254 -327)" fill="white"/>
<path id="Vector" d="M1186 -327H-254V150H1186V-327Z" fill="#F5F5F5"/>
<g id="Clip path group">
<mask id="mask0_2_86" style="mask-type:luminance" maskUnits="userSpaceOnUse" x="-252" y="-327" width="1438" height="478">
<g id="clip-path">
<path id="Vector_2" d="M1186 -327H-251.214V150.09H1186V-327Z" fill="white"/>
</g>
</mask>
<g mask="url(#mask0_2_86)">
<g id="Group">
<path id="Vector_3" style="mix-blend-mode:color-burn" d="M337.504 546.101C609.307 418.561 844.921 267.231 979.889 122.301C1209.63 -124.399 1073.71 -272.899 683.104 -250.339L-58.5879 546.101H337.504Z" fill="url(#paint0_radial_2_86)"/>
<path id="Vector_4" style="mix-blend-mode:color-burn" d="M-219.177 575.781C482.144 372.781 1204.06 -0.989197 1528.54 -349.399C1608.12 -434.859 1657.68 -512.259 1679.44 -580.199H1261.72L618.679 -384.119L-275.268 575.781H-219.177Z" fill="url(#paint1_radial_2_86)"/>
<path id="Vector_5" style="mix-blend-mode:color-burn" d="M773.898 574C1095.18 381.63 1365.15 178.64 1549.11 -18.88C1765.03 -250.73 1832.38 -442.67 1770.87 -582H1346.26L673.373 -240.59L-136.058 628.55L773.898 574Z" fill="url(#paint2_radial_2_86)"/>
</g>
</g>
</g>
<path id="Vector_6" d="M18.9841 -16H-130.388C-135.866 -16 -140.307 -11.5363 -140.307 -6.03003V19.42C-140.307 24.9263 -135.866 29.39 -130.388 29.39H18.9841C24.4626 29.39 28.9039 24.9263 28.9039 19.42V-6.03003C28.9039 -11.5363 24.4626 -16 18.9841 -16Z" stroke="#A8A9AE" stroke-width="1.5" stroke-miterlimit="10"/>
<g id="Frame 1010105738">
<path id="Vector_7" d="M6.95974 1.07422L12.3227 6.46423L6.89003 11.9242M1 6.50488H12.3226" stroke="#A8A9AE" stroke-width="2" stroke-miterlimit="10" stroke-linecap="round"/>
</g>
</g>
<defs>
<radialGradient id="paint0_radial_2_86" cx="0" cy="0" r="1" gradientUnits="userSpaceOnUse" gradientTransform="translate(-30.8591 325.282) rotate(132.949) scale(716.693 618.612)">
<stop/>
<stop offset="0.01" stop-color="#090909"/>
<stop offset="0.09" stop-color="#3C3C3C"/>
<stop offset="0.17" stop-color="#6A6A6A"/>
<stop offset="0.26" stop-color="#929292"/>
<stop offset="0.35" stop-color="#B4B4B4"/>
<stop offset="0.44" stop-color="#CFCFCF"/>
<stop offset="0.54" stop-color="#E5E5E5"/>
<stop offset="0.66" stop-color="#F4F4F4"/>
<stop offset="0.79" stop-color="#FCFCFC"/>
<stop offset="1" stop-color="white"/>
</radialGradient>
<radialGradient id="paint1_radial_2_86" cx="0" cy="0" r="1" gradientUnits="userSpaceOnUse" gradientTransform="translate(47.9709 -62.6904) rotate(132.949) scale(1048.8 905.267)">
<stop/>
<stop offset="0.01" stop-color="#090909"/>
<stop offset="0.09" stop-color="#3C3C3C"/>
<stop offset="0.17" stop-color="#6A6A6A"/>
<stop offset="0.26" stop-color="#929292"/>
<stop offset="0.35" stop-color="#B4B4B4"/>
<stop offset="0.44" stop-color="#CFCFCF"/>
<stop offset="0.54" stop-color="#E5E5E5"/>
<stop offset="0.66" stop-color="#F4F4F4"/>
<stop offset="0.79" stop-color="#FCFCFC"/>
<stop offset="1" stop-color="white"/>
</radialGradient>
<radialGradient id="paint2_radial_2_86" cx="0" cy="0" r="1" gradientUnits="userSpaceOnUse" gradientTransform="translate(-151.456 306.73) rotate(132.949) scale(1495.29 1290.66)">
<stop/>
<stop offset="0.01" stop-color="#090909"/>
<stop offset="0.09" stop-color="#3C3C3C"/>
<stop offset="0.17" stop-color="#6A6A6A"/>
<stop offset="0.26" stop-color="#929292"/>
<stop offset="0.35" stop-color="#B4B4B4"/>
<stop offset="0.44" stop-color="#CFCFCF"/>
<stop offset="0.54" stop-color="#E5E5E5"/>
<stop offset="0.66" stop-color="#F4F4F4"/>
<stop offset="0.79" stop-color="#FCFCFC"/>
<stop offset="1" stop-color="white"/>
</radialGradient>
</defs>
</svg>
